<?xml version="1.0" encoding="UTF-8" standalone="no"?>
<svg
   viewBox="0 0 448 512"
   version="1.1"
   id="svg4"
   sodipodi:docname="logo.svg"
   inkscape:version="1.1.1 (3bf5ae0d25, 2021-09-20)"
   xmlns:inkscape="http://www.inkscape.org/namespaces/inkscape"
   xmlns:sodipodi="http://sodipodi.sourceforge.net/DTD/sodipodi-0.dtd"
   xmlns="http://www.w3.org/2000/svg"
   xmlns:svg="http://www.w3.org/2000/svg">
  <defs
     id="defs8">
    <filter
       style="color-interpolation-filters:sRGB;"
       inkscape:label="Drop Shadow"
       id="filter2528"
       x="-0.042857143"
       y="-0.0375"
       width="1.0946429"
       height="1.0828125">
      <feFlood
         flood-opacity="0.25098"
         flood-color="rgb(0,0,0)"
         result="flood"
         id="feFlood2518" />
      <feComposite
         in="flood"
         in2="SourceGraphic"
         operator="in"
         result="composite1"
         id="feComposite2520" />
      <feGaussianBlur
         in="composite1"
         stdDeviation="8"
         result="blur"
         id="feGaussianBlur2522" />
      <feOffset
         dx="4"
         dy="4"
         result="offset"
         id="feOffset2524" />
      <feComposite
         in="SourceGraphic"
         in2="offset"
         operator="over"
         result="composite2"
         id="feComposite2526" />
    </filter>
  </defs>
  <sodipodi:namedview
     id="namedview6"
     pagecolor="#505050"
     bordercolor="#ffffff"
     borderopacity="1"
     inkscape:pageshadow="0"
     inkscape:pageopacity="0"
     inkscape:pagecheckerboard="1"
     showgrid="false"
     inkscape:zoom="0.60283615"
     inkscape:cx="538.28888"
     inkscape:cy="-131.87663"
     inkscape:window-width="1918"
     inkscape:window-height="2083"
     inkscape:window-x="1912"
     inkscape:window-y="0"
     inkscape:window-maximized="0"
     inkscape:current-layer="svg4" />
  <path
     id="path2"
     style="fill:#1db954;fill-opacity:1;filter:url(#filter2528)"
     d="M 128 0 C 110.3 0 96 14.3 96 32 L 96 64 L 48 64 C 21.5 64 0 85.5 0 112 L 0 160 L 448 160 L 448 112 C 448 85.5 426.5 64 400 64 L 352 64 L 352 32 C 352 14.3 337.7 0 320 0 C 302.3 0 288 14.3 288 32 L 288 64 L 160 64 L 160 32 C 160 14.3 145.7 0 128 0 z M 0 192 L 0 464 C 0 490.5 21.5 512 48 512 L 400 512 C 426.5 512 448 490.5 448 464 L 448 192 L 0 192 z M 297.5 246.92578 C 299.85767 247.06192 302.15496 247.87976 304.09375 249.33984 C 307.19582 251.63767 309.03516 255.31363 309.03516 259.18164 L 309.03516 286.75586 L 309.03516 387.86133 C 309.03516 404.78868 292.56703 418.49805 272.26953 418.49805 C 251.97203 418.49805 235.50391 404.78868 235.50391 387.86133 C 235.50391 370.93398 251.97203 357.22266 272.26953 357.22266 C 276.55882 357.22266 280.69567 357.83546 284.52539 358.98438 L 284.52539 303.22461 L 186.48438 332.63672 L 186.48438 412.37109 C 186.48438 429.29844 170.01626 443.00781 149.71875 443.00781 C 129.42125 443.00781 112.95313 429.29844 112.95312 412.37109 C 112.95312 395.44374 129.42125 381.73242 149.71875 381.73242 C 154.00804 381.73242 158.1449 382.34523 161.97461 383.49414 L 161.97461 323.52148 L 161.97461 295.94727 C 161.97461 290.54737 165.53496 285.75963 170.70508 284.18945 L 293.25586 247.42383 C 294.64892 247.00735 296.0854 246.8441 297.5 246.92578 z " />
</svg>
